<?xml version="1.0" encoding="UTF-8"?>
<svg version="1.1" xmlns="http://www.w3.org/2000/svg" width="32" height="32">
<path d="M0 0 C10.56 0 21.12 0 32 0 C32 10.56 32 21.12 32 32 C21.44 32 10.88 32 0 32 C0 21.44 0 10.88 0 0 Z " fill="#F3F3F3" transform="translate(0,0)"/>
<path d="M0 0 C8 0 8 0 11 1.5625 C13 4 13 4 13.5625 7.5 C12.92519445 11.46545673 12.1376325 12.60063397 9 15 C7 16 7 16 0 16 C0 10.72 0 5.44 0 0 Z " fill="#3F3F3F" transform="translate(5,8)"/>
<path d="M0 0 C0.99 0 1.98 0 3 0 C3.67467562 1.74692795 4.33944156 3.49768525 5 5.25 C5.556875 6.71179688 5.556875 6.71179688 6.125 8.203125 C7 11 7 11 7 15 C6.01 15 5.02 15 4 15 C3.67 14.34 3.34 13.68 3 13 C2.01 12.67 1.02 12.34 0 12 C0 11.01 0 10.02 0 9 C0.66 9 1.32 9 2 9 C1.34 6.03 0.68 3.06 0 0 Z " fill="#3A3A3A" transform="translate(20,8)"/>
<path d="M0 0 C1.65 0 3.3 0 5 0 C6 1 6 1 6.1875 4.4375 C6 8 6 8 4 10 C2.68 10 1.36 10 0 10 C0 6.7 0 3.4 0 0 Z " fill="#E2E2E2" transform="translate(8,11)"/>
<path d="M0 0 C0.99 0 1.98 0 3 0 C3.33 1.65 3.66 3.3 4 5 C3.34 5 2.68 5 2 5 C1.67 5.66 1.34 6.32 1 7 C0.67 4.69 0.34 2.38 0 0 Z " fill="#4B4B4B" transform="translate(20,8)"/>
</svg>
