<?xml version="1.0" encoding="UTF-8"?>
<svg version="1.1" xmlns="http://www.w3.org/2000/svg" width="600" height="600">
<path d="M0 0 C198 0 396 0 600 0 C600 198 600 396 600 600 C402 600 204 600 0 600 C0 402 0 204 0 0 Z " fill="#F26722" transform="translate(0,0)"/>
<path d="M0 0 C1.33788292 0.04839047 2.67577355 0.09656855 4.01367188 0.14453125 C7.23836275 0.26094608 10.46296083 0.37946846 13.6875 0.5 C13.6875 4.13 13.6875 7.76 13.6875 11.5 C10.0575 11.5 6.4275 11.5 2.6875 11.5 C3.3475 12.758125 4.0075 14.01625 4.6875 15.3125 C7.46588038 21.66592897 7.9206035 27.5563418 5.83984375 34.2109375 C2.71406505 41.26778026 -1.57147639 45.26141973 -8.48828125 48.52734375 C-16.18341976 51.33380603 -24.25171302 50.77002636 -32.3125 50.5 C-33.9625 53.47 -35.6125 56.44 -37.3125 59.5 C-36.24515625 59.47679687 -35.1778125 59.45359375 -34.078125 59.4296875 C-25.57977798 59.30235699 -17.15636931 59.49993655 -8.6875 60.25 C-7.8718457 60.31171387 -7.05619141 60.37342773 -6.21582031 60.43701172 C0.63629069 61.11322538 6.25983719 63.07233719 11.1875 68 C13.66552355 73.78205496 13.76105735 79.82698638 11.9921875 85.87890625 C8.52345669 93.55966733 2.7980936 96.75162686 -4.75 99.703125 C-16.89444609 103.47975153 -32.81916843 103.16927952 -44.76171875 98.84765625 C-49.34063399 96.42847439 -52.02954548 93.06590905 -54.3125 88.5 C-55.13105272 81.83464213 -53.63288546 78.70810475 -49.625 73.3828125 C-48.12187931 71.60907237 -48.12187931 71.60907237 -48.3125 69.5 C-48.9725 68.7575 -49.6325 68.015 -50.3125 67.25 C-52.3125 64.5 -52.3125 64.5 -52.9375 61.6875 C-52.01574534 56.98655122 -49.28313193 54.15170364 -46.3125 50.5 C-44.93278871 48.52659476 -43.62497954 46.5191993 -42.3125 44.5 C-42.89 44.29375 -43.4675 44.0875 -44.0625 43.875 C-47.51773339 41.76346848 -49.60089794 38.58799025 -50.90625 34.7578125 C-52.25992035 27.23452922 -52.77624935 17.83917148 -48.640625 11.140625 C-36.35799709 -4.03203301 -17.50962028 -0.65539297 0 0 Z " fill="#FEFBF9" transform="translate(322.3125,259.5)"/>
<path d="M0 0 C0.74475586 0.00491455 1.48951172 0.0098291 2.25683594 0.01489258 C9.55377678 0.16948878 15.76425397 1.01122121 21.625 5.625 C28.00983849 13.94463804 27.84974287 22.62880788 27.78515625 32.72265625 C27.7837413 33.57556747 27.78232635 34.4284787 27.78086853 35.30723572 C27.77532939 37.99652816 27.7627888 40.68573328 27.75 43.375 C27.74497712 45.21288941 27.7404156 47.05078015 27.73632812 48.88867188 C27.72538 53.36331422 27.70815839 57.83789238 27.6875 62.3125 C28.63625 62.291875 29.585 62.27125 30.5625 62.25 C33.6875 62.3125 33.6875 62.3125 35.6875 63.3125 C35.6875 66.2825 35.6875 69.2525 35.6875 72.3125 C28.7575 72.3125 21.8275 72.3125 14.6875 72.3125 C14.1925 68.3525 14.1925 68.3525 13.6875 64.3125 C13.11902344 64.71082031 12.55054688 65.10914063 11.96484375 65.51953125 C1.99423587 72.36079976 -4.96548393 74.70220744 -17.3125 73.3125 C-22.14872894 71.74868944 -25.18840244 69.06939083 -27.8125 64.75 C-30.33961238 58.78195335 -30.29511751 52.20392563 -28.72265625 45.9765625 C-26.31457379 40.183848 -21.95691414 36.81653731 -16.3125 34.3125 C-7.29017058 31.93442907 2.39918803 31.80068237 11.6875 31.3125 C11.62731983 29.06176172 11.53848794 26.81177675 11.4375 24.5625 C11.39109375 23.30953125 11.3446875 22.0565625 11.296875 20.765625 C10.92578731 17.32239892 10.92578731 17.32239892 9.08203125 14.88671875 C5.81853904 12.7412255 3.50374876 12.813821 -0.375 12.875 C-1.60347656 12.87628906 -2.83195312 12.87757813 -4.09765625 12.87890625 C-7.25814764 13.0487516 -7.25814764 13.0487516 -9.203125 14.671875 C-10.65084132 16.81286393 -10.96949962 18.77429718 -11.3125 21.3125 C-21.87058656 21.49701025 -21.87058656 21.49701025 -26.3125 20.3125 C-25.90968229 14.47164326 -25.199721 10.93514119 -21.3125 6.3125 C-14.83157665 1.12776132 -8.05905961 -0.06287597 0 0 Z " fill="#FEF9F7" transform="translate(504.3125,258.6875)"/>
<path d="M0 0 C4.99451208 4.19993061 6.98645019 8.83651814 7.75 15.3125 C7.87588065 18.64423084 7.86657235 21.97098803 7.84765625 25.3046875 C7.8462413 26.25062775 7.84482635 27.19656799 7.84336853 28.1711731 C7.83779484 31.17664829 7.8252472 34.18204753 7.8125 37.1875 C7.8074816 39.23176975 7.80291929 41.27604068 7.79882812 43.3203125 C7.78783403 48.31773736 7.77058757 53.31510583 7.75 58.3125 C10.39 58.3125 13.03 58.3125 15.75 58.3125 C15.75 61.6125 15.75 64.9125 15.75 68.3125 C8.82 68.3125 1.89 68.3125 -5.25 68.3125 C-5.91 66.0025 -6.57 63.6925 -7.25 61.3125 C-7.83007812 61.72242188 -8.41015625 62.13234375 -9.0078125 62.5546875 C-9.78898437 63.09351563 -10.57015625 63.63234375 -11.375 64.1875 C-12.14070313 64.72117187 -12.90640625 65.25484375 -13.6953125 65.8046875 C-21.11047679 70.18122177 -28.86408775 70.03573916 -37.25 69.3125 C-41.50887305 68.15035654 -43.76383447 65.86099445 -46.6875 62.5625 C-48.6484575 58.66605198 -48.67266524 54.53210835 -48.75 50.25 C-48.76861084 49.56518555 -48.78722168 48.88037109 -48.80639648 48.17480469 C-48.72574497 41.68823072 -46.02286994 38.21833518 -41.75 33.625 C-32.766454 26.7094485 -19.0458997 27.66036788 -8.25 27.3125 C-8.31002758 24.87237895 -8.39700204 22.43836474 -8.5 20 C-8.51417969 19.30970703 -8.52835938 18.61941406 -8.54296875 17.90820312 C-8.69228677 14.81732011 -8.8619295 12.78554945 -10.85546875 10.35546875 C-14.10570766 8.93978557 -16.7753359 8.91518351 -20.3125 8.9375 C-22.15521484 8.92589844 -22.15521484 8.92589844 -24.03515625 8.9140625 C-27.16537505 9.06484373 -27.16537505 9.06484373 -29.12109375 10.5234375 C-30.63436554 12.68548381 -30.63436554 12.68548381 -31.25 17.3125 C-38.18 16.8175 -38.18 16.8175 -45.25 16.3125 C-45.55605633 11.87468315 -45.65313586 9.20640994 -43.8125 5.125 C-33.34886854 -6.35947355 -13.22055375 -6.86451829 0 0 Z " fill="#FEFAF8" transform="translate(161.25,262.6875)"/>
<path d="M0 0 C4.5950536 3.86402235 6.92643734 8.33175886 7.75 14.3125 C7.88039024 17.68433479 7.86624791 21.05187479 7.84765625 24.42578125 C7.8462413 25.39533249 7.84482635 26.36488373 7.84336853 27.36381531 C7.83778513 30.45090867 7.82523564 33.53792867 7.8125 36.625 C7.80748286 38.72200416 7.80292032 40.81900946 7.79882812 42.91601562 C7.78782112 48.04820521 7.77056788 53.18034018 7.75 58.3125 C10.39 58.3125 13.03 58.3125 15.75 58.3125 C15.75 61.6125 15.75 64.9125 15.75 68.3125 C8.82 68.3125 1.89 68.3125 -5.25 68.3125 C-5.91 66.0025 -6.57 63.6925 -7.25 61.3125 C-7.83007812 61.72242188 -8.41015625 62.13234375 -9.0078125 62.5546875 C-9.78898437 63.09351563 -10.57015625 63.63234375 -11.375 64.1875 C-12.14070313 64.72117187 -12.90640625 65.25484375 -13.6953125 65.8046875 C-18.95907299 68.91143299 -23.68248288 69.62583824 -29.75 69.6875 C-31.0184375 69.71585937 -32.286875 69.74421875 -33.59375 69.7734375 C-38.97653751 69.09483822 -41.98985318 66.70887891 -45.5625 62.75 C-48.46555414 58.55669957 -48.46853291 55.00003819 -48.5625 50 C-48.59988281 48.70449219 -48.63726562 47.40898437 -48.67578125 46.07421875 C-48.05000463 40.54556842 -45.45182326 37.60446001 -41.75 33.625 C-32.766454 26.7094485 -19.0458997 27.66036788 -8.25 27.3125 C-8.33700798 24.87327639 -8.44386002 22.43771586 -8.5625 20 C-8.59633789 18.96456055 -8.59633789 18.96456055 -8.63085938 17.90820312 C-8.77871502 15.1258287 -8.97059903 12.82151776 -10.32421875 10.35546875 C-13.35112401 8.71615089 -16.39834596 8.88004307 -19.75 8.9375 C-20.42675781 8.92589844 -21.10351562 8.91429687 -21.80078125 8.90234375 C-24.62585372 8.91906016 -26.73782643 8.98714384 -29.15625 10.5234375 C-30.6247357 12.69487352 -30.6247357 12.69487352 -31.25 17.3125 C-38.18 16.8175 -38.18 16.8175 -45.25 16.3125 C-44.88305979 7.13899472 -44.88305979 7.13899472 -42 3.375 C-30.17827615 -5.49129289 -13.26910069 -6.88972536 0 0 Z " fill="#FEFBF9" transform="translate(391.25,262.6875)"/>
<path d="M0 0 C4.54782695 4.30032617 7.41990972 9.51220751 7.88087463 15.78033447 C7.90419106 16.93949371 7.90419106 16.93949371 7.92797852 18.12207031 C7.95789635 19.44298676 7.95789635 19.44298676 7.98841858 20.79058838 C8.00513107 21.73238953 8.02184357 22.67419067 8.0390625 23.64453125 C8.0598436 24.61549744 8.08062469 25.58646362 8.10203552 26.58685303 C8.16734487 29.6841331 8.22632948 32.78149693 8.28515625 35.87890625 C8.32835917 37.98047736 8.37197403 40.08204005 8.41601562 42.18359375 C8.52300723 47.33194573 8.62432715 52.48038183 8.72265625 57.62890625 C11.36265625 57.95890625 14.00265625 58.28890625 16.72265625 58.62890625 C16.72265625 61.92890625 16.72265625 65.22890625 16.72265625 68.62890625 C5.83265625 68.62890625 -5.05734375 68.62890625 -16.27734375 68.62890625 C-16.27734375 59.62890625 -16.27734375 59.62890625 -15.27734375 58.62890625 C-12.94436942 58.58797688 -10.6102915 58.58648902 -8.27734375 58.62890625 C-8.34619186 52.57787998 -8.43414522 46.52754662 -8.53979492 40.47705078 C-8.57304386 38.41886072 -8.60107589 36.36057949 -8.6237793 34.30224609 C-8.65732565 31.34302934 -8.70964177 28.38464808 -8.765625 25.42578125 C-8.77201492 24.50585388 -8.77840485 23.58592651 -8.7849884 22.63812256 C-8.88313513 17.64650507 -8.88313513 17.64650507 -10.64672852 13.05200195 C-13.72022403 10.36965349 -17.24009068 11.04792103 -21.12109375 11.15625 C-25.22924282 11.77145549 -28.09785632 13.26880465 -31.53515625 15.53515625 C-33.27734375 16.62890625 -33.27734375 16.62890625 -35.27734375 16.62890625 C-34.78234375 36.92390625 -34.78234375 36.92390625 -34.27734375 57.62890625 C-31.63734375 57.95890625 -28.99734375 58.28890625 -26.27734375 58.62890625 C-26.27734375 61.92890625 -26.27734375 65.22890625 -26.27734375 68.62890625 C-30.8163208 68.65356017 -35.35525918 68.67174414 -39.89428711 68.68383789 C-41.43954141 68.68887765 -42.98479091 68.69570945 -44.5300293 68.7043457 C-46.74659404 68.71642701 -48.96309593 68.72213798 -51.1796875 68.7265625 C-52.22188698 68.73430443 -52.22188698 68.73430443 -53.28514099 68.74220276 C-54.94963705 68.74239902 -56.61399874 68.69079754 -58.27734375 68.62890625 C-59.27734375 67.62890625 -59.27734375 67.62890625 -59.41015625 65.81640625 C-59.40757812 65.09453125 -59.405 64.37265625 -59.40234375 63.62890625 C-59.40492188 62.90703125 -59.4075 62.18515625 -59.41015625 61.44140625 C-59.27734375 59.62890625 -59.27734375 59.62890625 -58.27734375 58.62890625 C-54.81234375 58.13390625 -54.81234375 58.13390625 -51.27734375 57.62890625 C-51.27734375 42.11890625 -51.27734375 26.60890625 -51.27734375 10.62890625 C-53.91734375 9.63890625 -56.55734375 8.64890625 -59.27734375 7.62890625 C-58.94734375 4.65890625 -58.61734375 1.68890625 -58.27734375 -1.37109375 C-51.67734375 -1.37109375 -45.07734375 -1.37109375 -38.27734375 -1.37109375 C-37.61734375 0.60890625 -36.95734375 2.58890625 -36.27734375 4.62890625 C-35.32472656 4.13519531 -34.37210938 3.64148438 -33.390625 3.1328125 C-32.12386204 2.48535588 -30.85692574 1.83823831 -29.58984375 1.19140625 C-28.96400391 0.86591797 -28.33816406 0.54042969 -27.69335938 0.20507812 C-19.01119519 -4.2041885 -8.33745297 -6.00912935 0 0 Z " fill="#FEFAF8" transform="translate(245.27734375,262.37109375)"/>
<path d="M0 0 C13.2 0 26.4 0 40 0 C40 2.97 40 5.94 40 9 C35.39452591 10.15136852 32.06005857 10 27 10 C27 33.1 27 56.2 27 80 C36.9 79.67 46.8 79.34 57 79 C57.99 74.71 58.98 70.42 60 66 C63.63 66 67.26 66 71 66 C71 74.25 71 82.5 71 91 C47.57 91 24.14 91 0 91 C0 83 0 83 1 82 C5.455 81.505 5.455 81.505 10 81 C10 57.9 10 34.8 10 11 C6.7 10.34 3.4 9.68 0 9 C0 6.03 0 3.06 0 0 Z " fill="#FEFBF9" transform="translate(32,239)"/>
<path d="M0 0 C0.92941406 0.00644531 1.85882813 0.01289063 2.81640625 0.01953125 C5.4375 0.1875 5.4375 0.1875 9.4375 1.1875 C9.4375 8.7775 9.4375 16.3675 9.4375 24.1875 C5.4775 23.8575 1.5175 23.5275 -2.5625 23.1875 C-3.0575 18.7325 -3.0575 18.7325 -3.5625 14.1875 C-11.376453 15.48802452 -11.376453 15.48802452 -17.5625 20.1875 C-18.2642391 23.30981176 -18.14462814 26.36058544 -18.05078125 29.546875 C-18.04370651 30.45125305 -18.03663177 31.3556311 -18.02934265 32.28741455 C-18.00138765 35.17162329 -17.93864813 38.05387965 -17.875 40.9375 C-17.84991851 42.89450318 -17.82710508 44.85153684 -17.80664062 46.80859375 C-17.75155739 51.602313 -17.6652778 56.39457568 -17.5625 61.1875 C-16.17224609 61.27837891 -16.17224609 61.27837891 -14.75390625 61.37109375 C-13.55636719 61.45488281 -12.35882813 61.53867187 -11.125 61.625 C-9.93003906 61.70621094 -8.73507812 61.78742188 -7.50390625 61.87109375 C-4.5625 62.1875 -4.5625 62.1875 -3.5625 63.1875 C-3.4296875 65 -3.4296875 65 -3.4375 67.1875 C-3.43363281 68.2703125 -3.43363281 68.2703125 -3.4296875 69.375 C-3.5625 71.1875 -3.5625 71.1875 -4.5625 72.1875 C-7.3741338 72.27611992 -10.16108255 72.30272355 -12.97265625 72.28515625 C-13.81469101 72.2837413 -14.65672577 72.28232635 -15.52427673 72.28086853 C-18.22455335 72.27525263 -20.92474828 72.26269748 -23.625 72.25 C-25.45117068 72.24498705 -27.27734266 72.24042379 -29.10351562 72.23632812 C-33.58987542 72.22527804 -38.07617384 72.20800279 -42.5625 72.1875 C-42.5625 68.8875 -42.5625 65.5875 -42.5625 62.1875 C-39.9225 62.1875 -37.2825 62.1875 -34.5625 62.1875 C-34.5625 46.0175 -34.5625 29.8475 -34.5625 13.1875 C-37.5325 12.6925 -37.5325 12.6925 -40.5625 12.1875 C-41.2225 11.8575 -41.8825 11.5275 -42.5625 11.1875 C-42.66015625 5.03515625 -42.66015625 5.03515625 -42.5625 3.1875 C-41.5625 2.1875 -41.5625 2.1875 -39.61303711 2.07397461 C-38.7803833 2.07921143 -37.94772949 2.08444824 -37.08984375 2.08984375 C-36.19072266 2.09306641 -35.29160156 2.09628906 -34.36523438 2.09960938 C-33.41970703 2.10798828 -32.47417969 2.11636719 -31.5 2.125 C-30.55060547 2.12951172 -29.60121094 2.13402344 -28.62304688 2.13867188 C-26.26946935 2.1504989 -23.91601523 2.16697975 -21.5625 2.1875 C-20.9025 4.8275 -20.2425 7.4675 -19.5625 10.1875 C-18.67498047 9.35605469 -18.67498047 9.35605469 -17.76953125 8.5078125 C-16.97933594 7.78335937 -16.18914062 7.05890625 -15.375 6.3125 C-14.59769531 5.59320313 -13.82039063 4.87390625 -13.01953125 4.1328125 C-8.79866739 0.79101568 -5.33313158 -0.08159172 0 0 Z " fill="#FEF9F7" transform="translate(458.5625,258.8125)"/>
<path d="M0 0 C1.11246094 -0.01675781 2.22492188 -0.03351563 3.37109375 -0.05078125 C7.79473018 0.4527661 10.41120621 2.04210685 13.375 5.3125 C15.21846765 9.96968144 15.33642518 14.37963108 14.5625 19.3125 C12.92885558 22.71424518 10.5697277 24.67938544 7.375 26.6875 C1.63132725 27.96387172 -5.27378436 28.50185378 -10.4375 25.3125 C-13.32754196 22.96922273 -14.31259762 21.21204947 -14.82421875 17.52734375 C-15.14376752 8.6350728 -15.14376752 8.6350728 -12.6875 4.6875 C-8.74155632 0.52233722 -5.6846969 0.01971571 0 0 Z " fill="#F26824" transform="translate(300.4375,270.6875)"/>
<path d="M0 0 C1.44762018 0.02889228 2.89485209 0.09173493 4.33984375 0.18359375 C5.09555664 0.21026123 5.85126953 0.23692871 6.62988281 0.2644043 C8.84850635 0.3525537 11.06133849 0.4832044 13.27734375 0.62109375 C14.39496094 0.6675 15.51257813 0.71390625 16.6640625 0.76171875 C22.065716 1.08596535 26.27734728 1.62109728 30.27734375 5.62109375 C30.71484375 7.87109375 30.71484375 7.87109375 30.27734375 10.62109375 C25.34613461 15.79284968 20.5540329 17.33901641 13.375 17.95703125 C-0.87456072 18.27570039 -0.87456072 18.27570039 -6.72265625 13.62109375 C-7.97265625 10.24609375 -7.97265625 10.24609375 -7.72265625 6.62109375 C-5.66652396 2.26974401 -4.85287591 0.80966135 0 0 Z " fill="#F26A27" transform="translate(289.72265625,332.37890625)"/>
<path d="M0 0 C1.21605129 10.43777353 1.21605129 10.43777353 -1.60546875 14.0625 C-3.66809564 15.61043762 -5.69785703 16.84244969 -8 18 C-8.825 18.45375 -9.65 18.9075 -10.5 19.375 C-14.08782265 20.27195566 -17.3399148 20.70840359 -21 20 C-24 17.9375 -24 17.9375 -26 15 C-26.67096636 10.82509823 -26.49348946 8.82248243 -24.3125 5.1875 C-20.33830554 1.42812686 -16.3481884 0.74337012 -11 0.375 C-9.989375 0.30023438 -8.97875 0.22546875 -7.9375 0.1484375 C-5.28464747 0.01438378 -2.65552033 -0.02928883 0 0 Z " fill="#F26E2C" transform="translate(154,300)"/>
<path d="M0 0 C1.21605129 10.43777353 1.21605129 10.43777353 -1.60546875 14.0625 C-3.66809564 15.61043762 -5.69785703 16.84244969 -8 18 C-8.825 18.45375 -9.65 18.9075 -10.5 19.375 C-14.92530623 20.48132656 -19.09370303 20.73319114 -23.4375 19.0625 C-25.98007874 15.70629606 -26.30587609 12.14389271 -26 8 C-23.69447138 3.83231365 -21.41453391 2.47361949 -17 1 C-14.0625 0.5859375 -14.0625 0.5859375 -11 0.375 C-9.989375 0.30023438 -8.97875 0.22546875 -7.9375 0.1484375 C-5.28464747 0.01438378 -2.65552033 -0.02928883 0 0 Z " fill="#F26E2C" transform="translate(384,300)"/>
<path d="M0 0 C0.59712521 4.47180439 0.87636603 8.55481807 0 13 C-4.71463681 17.89121497 -10.91847108 19.66983619 -17.5 20.375 C-21 20 -21 20 -23.4375 18 C-25.41624197 14.20081543 -26.1432785 11.19202116 -25 7 C-22.57895335 3.91107841 -19.72118629 2.24039543 -16 1 C-13.64925634 0.77359068 -11.29412561 0.59103404 -8.9375 0.4375 C-7.68839844 0.35371094 -6.43929688 0.26992188 -5.15234375 0.18359375 C-3.43671304 0.08367474 -1.71853791 0 0 0 Z " fill="#F26A27" transform="translate(516,300)"/>
<path d="M0 0 C1.299375 0.02900391 1.299375 0.02900391 2.625 0.05859375 C3.49125 0.05988281 4.3575 0.06117188 5.25 0.0625 C8.08441148 0.57996657 8.99207794 1.13859533 10.625 3.49609375 C11.23871932 6.54810336 11.12196302 9.42863235 10.625 12.49609375 C8.85077578 14.93565205 7.64718795 15.33271125 4.71875 15.80078125 C1.17614162 16.02549895 -0.82363271 15.84069831 -3.875 13.93359375 C-5.94351618 10.57225495 -5.86005011 8.37649464 -5.375 4.49609375 C-3.8434415 1.7333789 -3.14219117 0.65634585 0 0 Z " fill="#FEFBF9" transform="translate(556.375,316.50390625)"/>
</svg>
