<?xml version="1.0" encoding="UTF-8"?>
<svg version="1.1" xmlns="http://www.w3.org/2000/svg" width="1500" height="1500">
<path d="M0 0 C495 0 990 0 1500 0 C1500 495 1500 990 1500 1500 C1005 1500 510 1500 0 1500 C0 1005 0 510 0 0 Z " fill="#EB0029" transform="translate(0,0)"/>
<path d="M0 0 C1.04520939 0.21339256 1.04520939 0.21339256 2.11153412 0.43109608 C10.53898006 2.18844106 18.8935247 4.26571165 27.24414062 6.35229492 C28.94753404 6.77438676 30.65102726 7.19607603 32.35461426 7.61738586 C36.78100607 8.71318663 41.20604503 9.81435259 45.63079834 10.91674805 C50.16905663 12.04637561 54.70860938 13.17077667 59.24804688 14.2956543 C68.1125828 16.49309437 76.97569447 18.69622027 85.83789062 20.90307617 C85.83789062 21.56307617 85.83789062 22.22307617 85.83789062 22.90307617 C86.88976562 23.00620117 87.94164062 23.10932617 89.02539062 23.21557617 C101.12263976 24.75061719 113.09428242 28.42299352 124.91599274 31.35751152 C127.92070045 32.10334669 130.92573382 32.84785727 133.93084717 33.59205627 C140.31681323 35.17374772 146.70237902 36.75705117 153.08789062 38.34057617 C160.48442924 40.17478689 167.88113919 42.00830138 175.27825165 43.84019661 C178.20769663 44.56602595 181.13684505 45.29304301 184.065979 46.02012634 C192.41865071 48.09041113 200.7744687 50.13661362 209.15576172 52.08813477 C214.57915242 53.35201646 219.95058433 54.70554924 225.29882812 56.25854492 C236.93788517 59.56845827 248.70526674 62.36318075 260.46289062 65.21557617 C262.74160077 65.77065075 265.02024704 66.32598765 267.29882812 66.8815918 C272.81111816 68.22510341 278.32418027 69.56540613 283.83789062 70.90307617 C283.83789062 71.56307617 283.83789062 72.22307617 283.83789062 72.90307617 C284.85109375 72.99588867 285.86429688 73.08870117 286.90820312 73.18432617 C292.94735764 73.94021858 298.81852122 75.46412567 304.72167969 76.91430664 C306.72791305 77.40676363 308.73585238 77.89173105 310.74414062 78.37573242 C320.56231399 80.76528785 320.56231399 80.76528785 322.83789062 81.90307617 C322.83789062 224.13307617 322.83789062 366.36307617 322.83789062 512.90307617 C314.58789062 513.89307617 306.33789062 514.88307617 297.83789062 515.90307617 C290.34946444 516.89798309 282.86147985 517.89379756 275.37890625 518.93164062 C272.97010037 519.26473779 270.56037007 519.5903129 268.15039062 519.91479492 C267.0909021 520.06473152 267.0909021 520.06473152 266.01000977 520.21769714 C260.91903988 520.89523291 255.97392988 520.98277551 250.83789062 520.90307617 C250.83789062 521.56307617 250.83789062 522.22307617 250.83789062 522.90307617 C234.57747098 524.91336039 218.31560877 526.89779542 202.02539062 528.65307617 C200.26727051 528.8441394 200.26727051 528.8441394 198.47363281 529.0390625 C197.39114258 529.15403076 196.30865234 529.26899902 195.19335938 529.38745117 C194.25129639 529.48767578 193.3092334 529.58790039 192.33862305 529.69116211 C189.83789062 529.90307617 189.83789062 529.90307617 185.83789062 529.90307617 C185.73766602 529.25048828 185.63744141 528.59790039 185.53417969 527.92553711 C183.79516871 516.6673141 182.03196567 505.43339922 179.71289062 494.27807617 C178.54561013 488.66316907 177.53632177 483.10080391 176.83789062 477.40307617 C176.15612869 471.84819848 175.1748005 466.43641075 174.02539062 460.96557617 C172.14786542 451.99043677 170.71344423 442.96527601 169.33789062 433.90307617 C167.83633973 424.01424991 166.20243916 414.18633911 164.15087891 404.39379883 C162.96410939 398.69510064 162.05788896 393.01694053 161.33007812 387.23901367 C160.93286778 384.54681025 160.4511048 381.92194301 159.90429688 379.25854492 C158.72453905 373.4790328 157.80808889 367.66805309 156.90039062 361.84057617 C155.72483069 354.39316799 154.53237652 346.95146953 153.21289062 339.52807617 C153.09268555 338.84938477 152.97248047 338.17069336 152.84863281 337.47143555 C152.32574686 334.54385679 151.7826245 331.62193981 151.20898438 328.70385742 C150.15812331 323.3172759 149.63067519 318.39428512 149.83789062 312.90307617 C149.17789063 312.90307617 148.51789062 312.90307617 147.83789062 312.90307617 C144.39877903 295.59472417 141.32799044 278.24733465 138.48486328 260.83178711 C137.80612559 256.71018452 137.1114121 252.59153763 136.41210938 248.47338867 C136.06282033 246.40892322 135.71376133 244.34441898 135.36474609 242.27990723 C135.03221865 240.31835415 134.69680353 238.35729129 134.36132812 236.39624023 C134.16152344 235.20998047 133.96171875 234.0237207 133.75585938 232.80151367 C133.48938599 231.23409424 133.48938599 231.23409424 133.2175293 229.63500977 C132.83789062 226.90307617 132.83789062 226.90307617 132.83789062 222.90307617 C132.22792236 223.17047607 131.6179541 223.43787598 130.98950195 223.71337891 C128.2120028 224.92756167 125.43125844 226.1341299 122.65039062 227.34057617 C121.69068359 227.76145508 120.73097656 228.18233398 119.7421875 228.6159668 C118.81083984 229.01879883 117.87949219 229.42163086 116.91992188 229.83666992 C116.0663208 230.20848389 115.21271973 230.58029785 114.33325195 230.96337891 C111.8382286 231.9029489 109.45228113 232.41091336 106.83789062 232.90307617 C106.96566769 233.8639596 107.09344475 234.82484303 107.22509384 235.81484413 C108.4236336 245.00120142 109.36106686 254.18148992 110.09269667 263.41607213 C110.33975318 266.53337658 110.59482162 269.65001508 110.84912992 272.76673496 C110.98193256 274.39552746 111.11433912 276.0243523 111.24635386 277.65320885 C111.92243587 285.98825731 112.63498606 294.32004706 113.35253906 302.65161133 C113.48156502 304.15298024 113.61056194 305.65435164 113.73953056 307.15572548 C114.07231821 311.02839457 114.40564914 314.90101672 114.73908949 318.77362967 C115.09973661 322.96348698 115.45982766 327.15339209 115.81997681 331.34329224 C116.35220325 337.53455638 116.88460175 343.72580569 117.4172169 349.91703641 C118.44075956 361.81496696 119.46301366 373.71300793 120.48486328 385.61108398 C124.11841824 427.92524443 124.11841824 427.92524443 127.76538086 470.23825073 C128.36198898 477.14669708 128.95682359 484.05529554 129.55080414 490.96396828 C129.98345687 495.99466478 130.41859018 501.02513772 130.85579109 506.0554409 C131.11391034 509.03219208 131.36962124 512.00914609 131.62455368 514.98617172 C131.79037297 516.91414352 131.95914829 518.8418604 132.12808228 520.76956177 C132.58784417 526.16816424 132.96849375 531.48451961 132.83789062 536.90307617 C104.63712718 540.4580882 76.43112134 543.95634072 48.20117188 547.2722168 C43.42805279 547.83300518 38.65549241 548.39844286 33.88298035 548.96437073 C29.89420151 549.43669692 25.90510824 549.90632427 21.91592407 550.37521362 C20.00580028 550.60013218 18.09578401 550.82596602 16.18588257 551.05276489 C13.54285818 551.36631233 10.89942639 551.67617307 8.25585938 551.98510742 C7.47456665 552.07858459 6.69327393 552.17206177 5.88830566 552.26837158 C2.1856283 552.69726145 -1.43345567 553.01145386 -5.16210938 552.90307617 C-7.24022406 548.43468365 -7.90411807 544.04427294 -8.59960938 539.21557617 C-10.85250029 524.05855268 -13.48518289 508.96745408 -16.15145874 493.87860107 C-18.45486706 480.83363982 -20.7457757 467.7898901 -22.74389648 454.69384766 C-23.66427208 448.73817777 -24.71928206 442.81354924 -25.81054688 436.88745117 C-27.83965728 425.84124134 -29.75369099 414.77597488 -31.65820312 403.70776367 C-31.89515805 402.33108835 -31.89515805 402.33108835 -32.13689995 400.92660141 C-33.29256046 394.21067083 -34.44623183 387.49439913 -35.59960938 380.77807617 C-40.74221656 350.77109792 -40.74221656 350.77109792 -46.00976562 320.78588867 C-46.20243515 319.70266327 -46.39510468 318.61943787 -46.59361267 317.50338745 C-47.57881348 312.00879155 -48.62445649 306.53548917 -49.78807068 301.07565308 C-50.32308996 297.96803201 -50.29885582 295.0482444 -50.16210938 291.90307617 C-50.82210938 291.90307617 -51.48210937 291.90307617 -52.16210938 291.90307617 C-52.6654448 289.29951377 -53.16490316 286.69530966 -53.66210938 284.09057617 C-53.80519531 283.35258789 -53.94828125 282.61459961 -54.09570312 281.85424805 C-54.67137219 278.82513227 -55.16210938 275.99388017 -55.16210938 272.90307617 C-55.84837402 273.20600586 -56.53463867 273.50893555 -57.24169922 273.82104492 C-60.33851544 275.18551233 -63.43776608 276.54435932 -66.53710938 277.90307617 C-67.61734375 278.3800293 -68.69757813 278.85698242 -69.81054688 279.34838867 C-70.84179688 279.79956055 -71.87304688 280.25073242 -72.93554688 280.71557617 C-73.88864746 281.13452148 -74.84174805 281.5534668 -75.82373047 281.98510742 C-78.16210938 282.90307617 -78.16210938 282.90307617 -80.16210938 282.90307617 C-80.04398234 283.76528684 -79.92585531 284.6274975 -79.80414867 285.51583576 C-78.11670973 298.35752725 -77.00810475 311.23753092 -75.8996582 324.14013672 C-75.6812368 326.6565406 -75.46256636 329.17292288 -75.2436676 331.68928528 C-74.65405947 338.47745321 -74.0684332 345.26595817 -73.4839499 352.05456901 C-73.11854973 356.29811779 -72.75209499 360.54157508 -72.38541222 364.7850132 C-71.17178902 378.83130888 -69.96093569 392.87783969 -68.75338725 406.92465892 C-68.65611852 408.05612512 -68.65611852 408.05612512 -68.55688477 409.21044922 C-68.49195993 409.96568702 -68.4270351 410.72092483 -68.36014285 411.49904863 C-67.30464207 423.77507145 -66.24230065 436.05049177 -65.17696659 448.32566478 C-64.08110072 460.95362555 -62.99052499 473.58203371 -61.90540522 486.21092254 C-61.29685665 493.29201878 -60.68608794 500.37290752 -60.0695591 507.45331383 C-59.49093837 514.09881511 -58.9196042 520.74490286 -58.35324669 527.39146233 C-58.14406617 529.83261432 -57.9324488 532.27355888 -57.71824646 534.71427536 C-57.42681774 538.03923484 -57.14409587 541.36482251 -56.86360168 544.6907196 C-56.77645222 545.66132425 -56.68930276 546.63192889 -56.5995124 547.63194579 C-56.52610214 548.52378312 -56.45269189 549.41562045 -56.37705708 550.33448315 C-56.31093072 551.10157862 -56.24480437 551.86867409 -56.17667419 552.65901488 C-56.16024309 555.19062243 -56.59157401 557.44233371 -57.16210938 559.90307617 C-58.20810303 560.02312012 -59.25409668 560.14316406 -60.33178711 560.2668457 C-64.46919183 560.74224598 -68.60636234 561.21965779 -72.74343872 561.69790649 C-74.64744435 561.91800711 -76.55147676 562.13787612 -78.45553589 562.35751343 C-90.16906734 563.71039584 -101.87626133 565.10476643 -113.57617188 566.57104492 C-115.22828423 566.77721436 -115.22828423 566.77721436 -116.91377258 566.98754883 C-122.28910887 567.65856426 -127.6635617 568.33560229 -133.03686523 569.02270508 C-135.01738158 569.27085895 -136.99793018 569.51875562 -138.97851562 569.76635742 C-139.86233917 569.88174362 -140.74616272 569.99712982 -141.6567688 570.11601257 C-147.5186354 570.84031583 -153.25799562 571.03204415 -159.16210938 570.90307617 C-159.16210938 571.56307617 -159.16210938 572.22307617 -159.16210938 572.90307617 C-163.37930171 573.47525996 -167.59683311 574.04485549 -171.81469727 574.61206055 C-173.24936352 574.80536022 -174.6839349 574.99936544 -176.1184082 575.1940918 C-178.18090642 575.47394618 -180.2437331 575.75125718 -182.30664062 576.02807617 C-184.16832886 576.27944336 -184.16832886 576.27944336 -186.06762695 576.53588867 C-189.16210937 576.90307617 -189.16210937 576.90307617 -192.16210938 576.90307617 C-193.38483475 574.45762543 -193.62937857 572.32760258 -194.02929688 569.61791992 C-194.19139648 568.53728271 -194.35349609 567.45664551 -194.52050781 566.34326172 C-194.69098633 565.18737549 -194.86146484 564.03148926 -195.03710938 562.84057617 C-196.42295258 553.59293347 -197.9137919 544.38484493 -199.64648438 535.19604492 C-200.091557 532.35364927 -200.27133392 529.77022051 -200.16210938 526.90307617 C-200.82210937 526.90307617 -201.48210937 526.90307617 -202.16210938 526.90307617 C-202.35788574 525.69699707 -202.35788574 525.69699707 -202.55761719 524.46655273 C-203.17207708 520.69478055 -203.79044669 516.92366679 -204.41210938 513.15307617 C-204.524711 512.47002411 -204.63731262 511.78697205 -204.75332642 511.08322144 C-206.27820129 501.86611869 -207.94918727 492.69576005 -209.85253906 483.54858398 C-211.06403203 477.63976859 -211.87646284 471.73047444 -212.61132812 465.74291992 C-213.22874205 461.43853773 -214.08091356 457.21929112 -214.97460938 452.96557617 C-216.85213489 443.99043524 -218.28652496 434.9652707 -219.66210938 425.90307617 C-221.11758307 416.31848569 -222.69382452 406.79808588 -224.70849609 397.31225586 C-226.43313475 388.99547045 -227.60133442 380.59769119 -228.76782227 372.18701172 C-229.59716746 366.29704834 -230.6616035 360.65501537 -232.16210938 354.90307617 C-232.48781066 352.82479181 -232.78005797 350.74096309 -233.03710938 348.65307617 C-234.29813874 339.31739101 -236.25116797 330.12383225 -238.16210938 320.90307617 C-239.15210938 320.90307617 -240.14210938 320.90307617 -241.16210938 320.90307617 C-241.16210938 321.56307617 -241.16210938 322.22307617 -241.16210938 322.90307617 C-247.9514359 326.49742551 -254.9666953 329.22673313 -262.16210938 331.90307617 C-262.28564505 339.53641298 -261.93556375 347.02558855 -261.24414062 354.62573242 C-261.14660492 355.7409024 -261.04906921 356.85607239 -260.94857788 358.0050354 C-260.73786756 360.40738107 -260.52499357 362.80953777 -260.31015015 365.21151733 C-259.96938076 369.02407441 -259.63491172 372.8371397 -259.30200195 376.65039062 C-258.29831491 388.12683505 -257.27913255 399.60188533 -256.25370121 411.07640553 C-255.72569567 416.98882327 -255.20408077 422.90179687 -254.68392944 428.81491089 C-254.35666656 432.51087543 -254.02183723 436.20610352 -253.68676758 439.90136719 C-252.67583758 451.26352739 -251.78960891 462.49037148 -252.16210938 473.90307617 C-251.50210938 473.90307617 -250.84210938 473.90307617 -250.16210938 473.90307617 C-249.28302151 483.65843124 -248.4048216 493.41386576 -247.52767372 503.16939545 C-247.12010066 507.70207907 -246.71225179 512.23473748 -246.30371094 516.76733398 C-245.24829395 528.47851995 -244.19793345 540.19013925 -243.16210938 551.90307617 C-243.10226364 552.57959229 -243.04241791 553.2561084 -242.98075867 553.953125 C-242.626393 557.96719195 -242.27868261 561.98178478 -241.93554688 565.99682617 C-241.85406403 566.92732788 -241.77258118 567.85782959 -241.68862915 568.81652832 C-241.61719696 569.66686646 -241.54576477 570.51720459 -241.47216797 571.39331055 C-241.41145111 572.10434937 -241.35073425 572.81538818 -241.28817749 573.54797363 C-241.12116137 576.66803374 -241.14329874 579.77926669 -241.16210938 582.90307617 C-250.54124458 584.08231431 -259.92102707 585.25622477 -269.30166626 586.42343903 C-273.65798328 586.96565464 -278.01406001 587.50966589 -282.36962891 588.05786133 C-286.57715902 588.58735606 -290.7852655 589.11202869 -294.99380493 589.63343811 C-296.59507457 589.83266982 -298.19613331 590.03360457 -299.79696655 590.23631287 C-302.04834531 590.52109492 -304.3004147 590.7996759 -306.55273438 591.0769043 C-307.83180664 591.23678833 -309.11087891 591.39667236 -310.42871094 591.56140137 C-314.38051412 591.92306423 -318.1968829 591.9611702 -322.16210938 591.90307617 C-322.29262695 591.34547607 -322.42314453 590.78787598 -322.55761719 590.21337891 C-324.95174633 580.00897994 -327.38312436 569.82732344 -330.13085938 559.71166992 C-331.1135381 556.08245873 -332.06874105 552.44716606 -333.01782227 548.80908203 C-334.68460631 542.42300643 -336.38365464 536.054236 -338.22460938 529.71557617 C-340.84198256 520.65462963 -343.09657475 511.50596283 -345.23242188 502.32104492 C-345.49732422 501.18276245 -345.49732422 501.18276245 -345.76757812 500.02148438 C-346.10396911 498.56890132 -346.43749069 497.11564954 -346.76757812 495.66162109 C-347.47808327 492.57965577 -348.26657214 489.59115919 -349.27148438 486.59057617 C-350.17813694 483.85471229 -350.3303154 481.76257861 -350.16210938 478.90307617 C-350.82210937 478.90307617 -351.48210937 478.90307617 -352.16210938 478.90307617 C-352.35321289 478.13342529 -352.54431641 477.36377441 -352.74121094 476.57080078 C-358.15102444 454.74524947 -358.15102444 454.74524947 -363.96289062 433.02416992 C-365.28617463 428.25356145 -366.50687284 423.48226669 -367.59960938 418.65307617 C-368.92900871 412.80097805 -370.4391555 407.0131238 -372.00195312 401.21948242 C-375.84476117 386.96780848 -379.4891811 372.66572519 -383.04785156 358.34082031 C-384.71021505 351.66446551 -386.44733587 345.01436816 -388.24023438 338.37182617 C-389.38042227 334.08162766 -390.45128243 329.77569026 -391.51538086 325.46606445 C-392.54950228 321.29840935 -393.61946034 317.14153209 -394.71289062 312.98901367 C-394.98311035 311.96227539 -395.25333008 310.93553711 -395.53173828 309.87768555 C-396.06684128 307.84972506 -396.6041868 305.82235464 -397.14404297 303.7956543 C-398.36112026 299.18139908 -399.50055306 294.63758765 -400.16210938 289.90307617 C-400.82210938 289.90307617 -401.48210937 289.90307617 -402.16210938 289.90307617 C-402.29262695 289.31518311 -402.42314453 288.72729004 -402.55761719 288.12158203 C-405.18904177 276.30666999 -407.96473565 264.57833476 -411.16210938 252.90307617 C-412.00270208 249.75914886 -412.8334486 246.61266726 -413.66210938 243.46557617 C-413.87552979 242.65620605 -414.0889502 241.84683594 -414.30883789 241.01293945 C-415.61312275 236.04817791 -416.87141859 231.07468649 -418.09960938 226.09057617 C-419.99611248 218.41090927 -422.09017264 210.78996485 -424.23217773 203.17529297 C-424.48233643 202.27464111 -424.73249512 201.37398926 -424.99023438 200.44604492 C-425.21614258 199.64191162 -425.44205078 198.83777832 -425.67480469 198.00927734 C-426.16210938 195.90307617 -426.16210938 195.90307617 -426.16210938 192.90307617 C-416.49952777 188.56059601 -406.83303169 184.22694908 -397.16210938 179.90307617 C-396.20127441 179.47317383 -395.24043945 179.04327148 -394.25048828 178.6003418 C-391.99378361 177.59267238 -389.73492965 176.59010245 -387.47460938 175.59057617 C-386.27449219 175.05819336 -385.074375 174.52581055 -383.83789062 173.97729492 C-381.16210938 172.90307617 -381.16210938 172.90307617 -379.16210938 172.90307617 C-379.16210938 172.24307617 -379.16210938 171.58307617 -379.16210938 170.90307617 C-364.1212008 163.93155296 -349.0532102 157.02382785 -333.95361328 150.18048096 C-325.34395303 146.27753048 -316.7598041 142.32951224 -308.22583008 138.26318359 C-304.22049823 136.36603249 -300.18043543 134.68668644 -296.04101562 133.11010742 C-290.82178322 130.92185395 -285.75111493 128.39409454 -280.67236328 125.89941406 C-279.87620605 125.51390381 -279.08004883 125.12839355 -278.25976562 124.73120117 C-277.54312744 124.37960937 -276.82648926 124.02801758 -276.08813477 123.66577148 C-274.16210938 122.90307617 -274.16210938 122.90307617 -271.16210938 122.90307617 C-271.16210938 122.24307617 -271.16210938 121.58307617 -271.16210938 120.90307617 C-261.41003609 116.23246014 -251.64071655 111.62369238 -241.74682617 107.26074219 C-234.3460485 103.9946603 -226.97154389 100.67109966 -219.59960938 97.34057617 C-218.9498111 97.04724396 -218.30001282 96.75391174 -217.63052368 96.45169067 C-209.7577654 92.89752834 -201.89286186 89.32670674 -194.03710938 85.73510742 C-192.5287492 85.04633856 -191.02036726 84.35761737 -189.51196289 83.66894531 C-186.62287108 82.34988882 -183.73564092 81.02686528 -180.84936523 79.70166016 C-179.5252981 79.09677006 -178.20116413 78.49202623 -176.87695312 77.88745117 C-175.72316162 77.35861328 -174.56937012 76.82977539 -173.38061523 76.28491211 C-170.34482018 74.98152138 -167.3114684 73.89594818 -164.16210938 72.90307617 C-164.16210938 72.24307617 -164.16210938 71.58307617 -164.16210938 70.90307617 C-162.53855782 70.1499458 -160.91316243 69.40079032 -159.28710938 68.65307617 C-158.3821875 68.23541992 -157.47726562 67.81776367 -156.54492188 67.38745117 C-153.96960916 66.25740633 -151.40372427 65.21707433 -148.78320312 64.20385742 C-142.15155723 61.57077679 -135.74418309 58.46251302 -129.30737305 55.3927002 C-117.35282102 49.69568129 -105.35482565 44.14007727 -93.20458984 38.87036133 C-87.74529608 36.4968731 -82.31530296 34.07030824 -76.91601562 31.56323242 C-76.31276459 31.28319366 -75.70951355 31.00315491 -75.08798218 30.71463013 C-72.15844856 29.3525903 -69.23213808 27.98398232 -66.30859375 26.60913086 C-65.27154297 26.12476563 -64.23449219 25.64040039 -63.16601562 25.14135742 C-61.78651733 24.49227417 -61.78651733 24.49227417 -60.37915039 23.83007812 C-58.16210938 22.90307617 -58.16210938 22.90307617 -56.16210938 22.90307617 C-56.16210938 22.24307617 -56.16210938 21.58307617 -56.16210938 20.90307617 C-55.1487854 20.49545044 -55.1487854 20.49545044 -54.11499023 20.07958984 C-45.1718176 16.42335996 -36.4536767 12.35102796 -27.72460938 8.21557617 C-25.57465009 7.19870027 -23.42431749 6.18263586 -21.2731781 5.16825867 C-19.94795199 4.54319232 -18.62341348 3.91666523 -17.29969788 3.28840637 C-15.59232764 2.48227723 -13.87745893 1.6920839 -12.16210938 0.90307617 C-11.04363869 0.32697098 -11.04363869 0.32697098 -9.90257263 -0.26077271 C-6.22237666 -1.38364855 -3.75834517 -0.77942647 0 0 Z " fill="#F0F4F0" transform="translate(781.162109375,403.096923828125)"/>
<path d="M0 0 C0 42.9 0 85.8 0 130 C-10.12469925 130 -10.12469925 130 -15.41503906 129.11376953 C-17.18297821 128.82314133 -17.18297821 128.82314133 -18.9866333 128.52664185 C-20.23370056 128.31417816 -21.48076782 128.10171448 -22.765625 127.8828125 C-24.08914504 127.66274651 -25.41277628 127.44334837 -26.73651123 127.22457886 C-30.20459326 126.64970683 -33.67119184 126.06634528 -37.13751221 125.48095703 C-41.31669731 124.77675873 -45.49754999 124.08254602 -49.67815781 123.38685417 C-52.93839181 122.84412728 -56.19827147 122.29952071 -59.45758057 121.75125122 C-66.32025003 120.59873166 -73.18815688 119.49879096 -80.06756592 118.45089722 C-83.94663264 117.85444378 -87.81759342 117.21536035 -91.6875 116.5625 C-92.43733154 116.43689697 -93.18716309 116.31129395 -93.9597168 116.18188477 C-97.09087226 115.65736325 -100.22169167 115.13084885 -103.35253906 114.60449219 C-111.96161764 113.15828182 -120.57069225 111.73140355 -129.203125 110.4296875 C-132.13994407 109.97850021 -135.07012158 109.49409192 -138 109 C-138 108.34 -138 107.68 -138 107 C-138.69317825 106.95572876 -139.38635651 106.91145752 -140.10054016 106.86584473 C-148.46745471 106.25828378 -156.65574299 105.01285192 -164.91796875 103.59375 C-166.35948839 103.35016902 -167.80109552 103.10710525 -169.24278259 102.86451721 C-172.30301983 102.34884299 -175.36278116 101.83046894 -178.42218018 101.30984497 C-186.52022431 99.93230207 -194.62147016 98.57376448 -202.72265625 97.21484375 C-203.53879143 97.07779966 -204.35492661 96.94075558 -205.19579315 96.79955864 C-221.15693615 94.12081429 -237.13504409 91.5637252 -253.125 89.0625 C-257.70316417 88.34530194 -262.28128356 87.62781843 -266.859375 86.91015625 C-267.91646164 86.74452179 -268.97354828 86.57888733 -270.06266785 86.40823364 C-279.17337753 84.97823094 -288.27714326 83.50954776 -297.375 82 C-298.56367676 81.80414307 -299.75235352 81.60828613 -300.97705078 81.40649414 C-302.0236084 81.23110107 -303.07016602 81.05570801 -304.1484375 80.875 C-305.02677246 80.72804688 -305.90510742 80.58109375 -306.81005859 80.4296875 C-309 80 -309 80 -312 79 C-312.86254997 74.42993805 -313.71674558 69.85841973 -314.56347656 65.28540039 C-314.85224028 63.73224565 -315.14322114 62.17950133 -315.43652344 60.62719727 C-315.85945976 58.38664176 -316.27421094 56.14469631 -316.6875 53.90234375 C-316.81874268 53.21663803 -316.94998535 52.53093231 -317.08520508 51.82444763 C-317.87237766 47.49846312 -318.1198613 43.39241728 -318 39 C-308.23835199 36.79933892 -298.36530909 35.7675183 -288.4375 34.625 C-286.53819551 34.40336872 -284.63894485 34.18127576 -282.73974609 33.95874023 C-279.86435614 33.62185627 -276.98893912 33.28523292 -274.11334229 32.95011902 C-266.11345702 32.01742863 -258.1190144 31.04427537 -250.125 30.0625 C-240.34300785 28.86615011 -230.55670841 27.71339005 -220.765625 26.59375 C-219.68170471 26.46977844 -218.59778442 26.34580688 -217.48101807 26.21807861 C-215.24414183 25.96231041 -213.00726437 25.70655289 -210.77038574 25.45080566 C-192.18457764 23.32528147 -173.61766503 21.1038612 -155.06762695 18.68603516 C-145.22678827 17.40439863 -135.38146454 16.19935576 -125.51855469 15.09741211 C-119.6728631 14.43984191 -113.83655636 13.72932999 -108.00390625 12.96484375 C-93.34595488 11.05119445 -78.79644171 9.3556837 -64 9 C-64 8.34 -64 7.68 -64 7 C-57.34738994 6.16204669 -50.69453194 5.32608325 -44.04150391 4.49145508 C-41.78168169 4.20772579 -39.52191507 3.92355326 -37.26220703 3.63891602 C-34.00047347 3.22814189 -30.73853842 2.81900086 -27.4765625 2.41015625 C-25.97906967 2.22103416 -25.97906967 2.22103416 -24.45132446 2.02809143 C-8.22914504 0 -8.22914504 0 0 0 Z " fill="#F0F3EF" transform="translate(1104,967)"/>
</svg>
